Coordinates
version=1
nRows=5
nColumns=40
inDegrees=yes

Units are S.I. units (second, meters, Newtons, ...)
Angles are in degrees.

endheader
time	pelvis_tilt	pelvis_list	pelvis_rotation	pelvis_tx	pelvis_ty	pelvis_tz	hip_flexion_r	hip_adduction_r	hip_rotation_r	knee_angle_r	knee_angle_r_beta	ankle_angle_r	subtalar_angle_r	mtp_angle_r	hip_flexion_l	hip_adduction_l	hip_rotation_l	knee_angle_l	knee_angle_l_beta	ankle_angle_l	subtalar_angle_l	mtp_angle_l	lumbar_extension	lumbar_bending	lumbar_rotation	arm_flex_r	arm_add_r	arm_rot_r	elbow_flex_r	pro_sup_r	wrist_flex_r	wrist_dev_r	arm_flex_l	arm_add_l	arm_rot_l	elbow_flex_l	pro_sup_l	wrist_flex_l	wrist_dev_l
     36.12500000	     -4.35621426	     -5.50269302	      4.92738874	      0.87462497	      0.91488006	      0.47219571	     -1.39746334	      4.45936060	    -16.62189728	     12.04452808	     12.04452808	     19.23014719	      0.59603944	     -1.88535954	     31.93031212	     -6.31737231	     -2.77761981	     18.01698748	     18.01698748	      1.90409597	     -8.23743567	      2.44137960	     -8.64074661	      5.71531321	      2.92938516	     38.20835115	    -15.82698713	     -1.32272775	     99.67066562	     44.27693916	      0.00000000	      0.00000000	    -11.92382396	     -7.36390944	      2.20670595	     28.34382935	     44.72151312	      0.00000000	      0.00000000
     36.13850000	     -4.21940174	     -5.44672219	      4.82933517	      0.87755323	      0.91368718	      0.47050068	     -2.16544798	      4.30106117	    -16.43897332	     12.19560296	     12.19560296	     19.60770799	      0.61589328	     -1.94416068	     31.67084879	     -6.21826818	     -2.65945923	     19.26497924	     19.26497924	      1.14596185	     -8.85601526	      2.46924848	     -8.42983369	      5.48197597	      3.06058531	     37.64616133	    -15.53483780	     -1.13871918	     99.55477306	     44.27794999	      0.00000000	      0.00000000	    -11.96147643	     -7.42977747	      2.20125181	     28.29152379	     44.72792912	      0.00000000	      0.00000000
     36.15200000	     -4.16796626	     -5.46008264	      4.72539593	      0.88038345	      0.91250299	      0.46858131	     -2.75521415	      4.15946640	    -16.23960464	     12.50053480	     12.50053480	     19.98668993	      0.61647092	     -1.83441734	     31.61698627	     -6.07096230	     -1.98264574	     20.61656865	     20.61656865	      0.41291762	    -10.21264485	      2.45809672	     -8.14990958	      5.36691437	      3.20948235	     37.01763856	    -15.30326832	     -0.98975749	     99.32206601	     44.29123048	      0.00000000	      0.00000000	    -11.88483304	     -7.41839866	      2.18614643	     28.26869300	     44.74604125	      0.00000000	      0.00000000
     36.16550000	     -4.04856316	     -5.36664762	      4.57607551	      0.88312814	      0.91180462	      0.46649075	     -3.32404983	      3.85391119	    -16.03563960	     12.98132295	     12.98132295	     20.31349607	      0.56882728	     -1.69822449	     31.42037167	     -5.82298426	     -1.36857380	     21.82415866	     21.82415866	     -0.03800793	    -11.45824804	      2.55606663	     -8.02419576	      5.11133664	      3.38746304	     36.18756983	    -15.11736687	     -0.81521914	     98.90111189	     44.30910333	      0.00000000	      0.00000000	    -11.70481826	     -7.47783895	      2.13298120	     28.25914338	     44.77201686	      0.00000000	      0.00000000
     36.17900000	     -3.82783954	     -5.19907965	      4.42321733	      0.88590258	      0.91166341	      0.46420016	     -4.03273669	      3.46064668	    -15.81134569	     13.38639960	     13.38639960	     20.43718028	      0.53248822	     -1.72291159	     31.04380668	     -5.57445455	     -1.06414223	     22.90524721	     22.90524721	     -0.01452193	    -12.04453266	      2.45536841	     -8.05543575	      4.83755290	      3.47629328	     35.18574768	    -14.78985695	     -0.54512508	     98.54109606	     44.31008692	      0.00000000	      0.00000000	    -11.41830160	     -7.46218361	      2.12037161	     28.34473518	     44.78117189	      0.00000000	      0.00000000
